<?xml version="1.0" encoding="utf-8"?>
<svg id="master-artboard" xmlns="http://www.w3.org/2000/svg" viewBox="0 0 128 128" width="128px" height="128px"><rect id="ee-background" x="0" y="0" width="128" height="128" style="fill: white; fill-opacity: 0; pointer-events: none;"/><defs><style id="ee-google-fonts">@import url(https://fonts.googleapis.com/css?family=Actor:400);</style></defs><g transform="matrix(0.15731681883335114, 0, 0, 0.15731681883335114, 25.92129135131836, 47.21127700805663)"><g><g><linearGradient gradientUnits="userSpaceOnUse" id="SVGID_1_" x1="0.0000038" x2="512" y1="256" y2="256"><stop offset="0" style="stop-color:#00AEEE"/><stop offset="1" style="stop-color:#0095DA"/></linearGradient><path d="M 512 256 A 256 256 0 0 1 256 512 A 256 256 0 0 1 0 256 A 256 256 0 0 1 256 0 A 256 256 0 0 1 512 256 Z" fill="url(#SVGID_1_)" style="stroke: rgb(0, 0, 0); stroke-width: 0;"/><linearGradient gradientUnits="userSpaceOnUse" id="SVGID_2_" x1="42.6666679" x2="469.3333435" y1="256.0005188" y2="256.0005188"><stop offset="0" style="stop-color:#0095DA"/><stop offset="1" style="stop-color:#00AEEE"/></linearGradient><path d="M256,469.3338623c-117.6314697,0-213.3333282-95.7018738-213.3333282-213.3333435    c0-117.6309204,95.7018585-213.333313,213.3333282-213.333313c117.636261,0,213.3333435,95.7024002,213.3333435,213.333313    C469.3333435,373.6319885,373.636261,469.3338623,256,469.3338623z" fill="url(#SVGID_2_)" style="stroke: rgb(0, 0, 0); stroke-width: 0;"/></g><g><path d="M 299.65545654296875 149 L 299.65545654296875 202.4586639404297 L 353.1152038574219 202.4586639404297 Z" opacity="0.3" style="stroke: rgb(0, 0, 0); stroke-width: 0;"/><path d="M289.6554565,212.4586639V144H169.8847961v240h188.2304077V212.4586639H289.6554565z     M215.8421326,352.0383911l-20.1465607-20.1514587l7.0702972-7.0704041l13.0762634,13.0810852l29.6922607-29.6917419    l7.0704041,7.0698547L215.8421326,352.0383911z M215.8421326,287.683197l-20.1465607-20.1466675l7.0702972-7.0704041    l13.0762634,13.0762634l29.6922607-29.6922607l7.0704041,7.06987L215.8421326,287.683197z M328.8549194,341.2282715h-68.0180054    v-10h68.0180054V341.2282715z M328.8549194,276.8725281h-68.0180054v-10h68.0180054V276.8725281z" opacity="0.3" style="stroke: rgb(0, 0, 0); stroke-width: 0;"/></g><g><path d="M 291.65545654296875 141 L 291.65545654296875 194.4586639404297 L 345.1152038574219 194.4586639404297 Z" fill="#FFFFFF" style="stroke: rgb(0, 0, 0); stroke-width: 0;"/><path d="M281.6554565,204.4586639V136H161.8847961v240h188.2304077V204.4586639H281.6554565z     M207.8421326,344.0383911l-20.1465607-20.1514587l7.0702972-7.0704041l13.0762634,13.0810852l29.6922607-29.6917419    l7.0704041,7.0698547L207.8421326,344.0383911z M207.8421326,279.683197l-20.1465607-20.1466675l7.0702972-7.0703888    l13.0762634,13.0762482l29.6922607-29.6922607l7.0704041,7.06987L207.8421326,279.683197z M320.8549194,333.2282715h-68.0180206    v-10h68.0180206V333.2282715z M320.8549194,268.8725281h-68.0180206v-10h68.0180206V268.8725281z" fill="#FFFFFF" style="stroke: rgb(0, 0, 0); stroke-width: 0;"/></g></g></g><path d="M 100.89759063720703 400.510009765625 C 100.89759063720703 393.5899963378906 101.98426055908203 387.74334716796875 104.1575927734375 382.9700012207031 C 106.33092498779297 378.19000244140625 109.1142578125 374.336669921875 112.5075912475586 371.4100036621094 C 115.89425659179688 368.48333740234375 119.67425537109375 366.3599853515625 123.84759521484375 365.0400085449219 C 128.0209197998047 363.7200012207031 132.10426330566406 363.05999755859375 136.09759521484375 363.05999755859375 C 140.09092712402344 363.05999755859375 144.17425537109375 363.61334228515625 148.34759521484375 364.7200012207031 C 152.5209197998047 365.82666015625 156.30093383789062 367.7900085449219 159.68759155273438 370.6099853515625 C 163.0809326171875 373.42333984375 165.8642578125 377.25665283203125 168.03759765625 382.1099853515625 C 170.21092224121094 386.9566650390625 171.29759216308594 393.1266784667969 171.29759216308594 400.6199951171875 C 171.29759216308594 407.61334228515625 170.21092224121094 413.5 168.03759765625 418.2799987792969 C 165.8642578125 423.0533447265625 163.0809326171875 426.94000244140625 159.68759155273438 429.94000244140625 C 156.30093383789062 432.9333190917969 152.5209197998047 435.0899963378906 148.34759521484375 436.4100036621094 C 144.17425537109375 437.7300109863281 140.09092712402344 438.3900146484375 136.09759521484375 438.3900146484375 C 132.10426330566406 438.3900146484375 128.0209197998047 437.7466735839844 123.84759521484375 436.4599914550781 C 119.67425537109375 435.17999267578125 115.89425659179688 433.07666015625 112.5075912475586 430.1499938964844 C 109.1142578125 427.2300109863281 106.33092498779297 423.34332275390625 104.1575927734375 418.489990234375 C 101.98426055908203 413.63665771484375 100.89759063720703 407.6433410644531 100.89759063720703 400.510009765625 M 161.13758850097656 401.04998779296875 C 161.13758850097656 391.4166564941406 158.9075927734375 384.10333251953125 154.4475860595703 379.1099853515625 C 149.9875946044922 374.1166687011719 144.01425170898438 371.6199951171875 136.527587890625 371.6199951171875 C 132.74758911132812 371.6199951171875 129.30426025390625 372.2099914550781 126.19759368896484 373.3900146484375 C 123.09759521484375 374.5633239746094 120.42425537109375 376.33001708984375 118.1775894165039 378.69000244140625 C 115.93092346191406 381.0433349609375 114.18092346191406 383.98333740234375 112.9275894165039 387.510009765625 C 111.68092346191406 391.0433349609375 111.0575942993164 395.20001220703125 111.0575942993164 399.9800109863281 C 111.0575942993164 409.6066589355469 113.28759002685547 416.989990234375 117.74758911132812 422.1300048828125 C 122.20759582519531 427.2633361816406 128.18092346191406 429.8299865722656 135.66758728027344 429.8299865722656 C 139.38092041015625 429.8299865722656 142.80426025390625 429.24334716796875 145.93759155273438 428.07000732421875 C 149.0775909423828 426.8900146484375 151.7709197998047 425.086669921875 154.01759338378906 422.6600036621094 C 156.26425170898438 420.23333740234375 158.01425170898438 417.2366638183594 159.26759338378906 413.6700134277344 C 160.51425170898438 410.10333251953125 161.13758850097656 405.89666748046875 161.13758850097656 401.04998779296875 ZM 184.5235595703125 391.8500061035156 C 184.5235595703125 390.2033386230469 184.34689331054688 387.6333312988281 183.99356079101562 384.1400146484375 L 191.903564453125 383.07000732421875 L 192.76356506347656 390.8800048828125 L 192.87356567382812 390.8800048828125 C 194.153564453125 389.239990234375 195.4002227783203 387.8133239746094 196.61355590820312 386.6000061035156 C 197.82688903808594 385.38665771484375 199.09356689453125 384.336669921875 200.41355895996094 383.45001220703125 C 201.7335662841797 382.5566711425781 203.00022888183594 382.1099853515625 204.21356201171875 382.1099853515625 C 205.8535614013672 382.03668212890625 208.13690185546875 382.21331787109375 211.06356811523438 382.6400146484375 L 209.13356018066406 390.8800048828125 C 206.7802276611328 390.4533386230469 205.14022827148438 390.27667236328125 204.21356201171875 390.3500061035156 C 203.00022888183594 390.3500061035156 201.71688842773438 390.91998291015625 200.36355590820312 392.05999755859375 C 199.00357055664062 393.20001220703125 197.82688903808594 394.413330078125 196.83355712890625 395.70001220703125 C 195.54689025878906 397.26666259765625 194.29689025878906 399.04998779296875 193.08355712890625 401.04998779296875 L 193.08355712890625 437 L 184.5235595703125 437 L 184.5235595703125 391.8500061035156 ZM 261.04736328125 442.1400146484375 C 261.04736328125 444.7799987792969 260.7640075683594 447.3466796875 260.1973571777344 449.8399963378906 C 259.6240234375 452.3399963378906 258.5340270996094 454.57000732421875 256.9273376464844 456.5299987792969 C 255.3273468017578 458.489990234375 253.0806884765625 460.05999755859375 250.18734741210938 461.239990234375 C 247.30068969726562 462.413330078125 243.50401306152344 463 238.79734802246094 463 C 235.79734802246094 462.9266662597656 233.190673828125 462.75 230.97735595703125 462.4700012207031 C 228.7706756591797 462.1833190917969 226.66734313964844 461.7733459472656 224.66734313964844 461.239990234375 C 222.67401123046875 460.70001220703125 220.8573455810547 460.0733337402344 219.21734619140625 459.3599853515625 L 221.4573516845703 451.8699951171875 C 224.2440185546875 453.0833435058594 227.0806884765625 454.0133361816406 229.96734619140625 454.6600036621094 C 232.85401916503906 455.29998779296875 235.440673828125 455.6199951171875 237.72735595703125 455.6199951171875 C 240.22067260742188 455.6199951171875 242.39401245117188 455.3699951171875 244.24734497070312 454.8699951171875 C 246.10067749023438 454.3699951171875 247.65402221679688 453.5299987792969 248.9073486328125 452.3500061035156 C 250.15402221679688 451.1766662597656 251.0806884765625 449.6266784667969 251.68734741210938 447.70001220703125 C 252.29400634765625 445.7733459472656 252.59735107421875 443.3833312988281 252.59735107421875 440.5299987792969 L 252.59735107421875 432.7200012207031 C 251.09735107421875 433.7200012207031 249.54400634765625 434.6300048828125 247.93734741210938 435.45001220703125 C 246.33734130859375 436.2699890136719 244.62734985351562 436.9666748046875 242.80734252929688 437.5400085449219 C 240.9873504638672 438.1066589355469 239.22067260742188 438.3900146484375 237.50735473632812 438.3900146484375 C 230.87400817871094 438.3900146484375 225.63067626953125 436.0533447265625 221.77734375 431.3800048828125 C 217.92401123046875 426.7066650390625 215.99734497070312 419.73333740234375 215.99734497070312 410.4599914550781 C 215.99734497070312 405.11334228515625 216.83734130859375 400.6400146484375 218.51734924316406 397.0400085449219 C 220.190673828125 393.433349609375 222.3140106201172 390.5233459472656 224.88734436035156 388.30999755859375 C 227.45401000976562 386.10333251953125 230.2706756591797 384.51666259765625 233.33734130859375 383.54998779296875 C 236.40402221679688 382.5899963378906 239.3273468017578 382.1099853515625 242.1073455810547 382.1099853515625 C 245.74734497070312 382.1099853515625 249.08401489257812 382.413330078125 252.11734008789062 383.0199890136719 C 255.1506805419922 383.6266784667969 258.1273498535156 384.1066589355469 261.04736328125 384.4599914550781 L 261.04736328125 442.1400146484375 M 238.47735595703125 430.8999938964844 C 240.04400634765625 430.8999938964844 241.6473388671875 430.61334228515625 243.287353515625 430.0400085449219 C 244.92735290527344 429.47332763671875 246.51400756835938 428.7966613769531 248.04734802246094 428.010009765625 C 249.5806884765625 427.2300109863281 251.09735107421875 426.3033447265625 252.59735107421875 425.2300109863281 L 252.59735107421875 391.1000061035156 C 251.7440185546875 390.88665771484375 250.7440185546875 390.63665771484375 249.59735107421875 390.3500061035156 C 248.59735107421875 390.2033386230469 247.4573516845703 390.0433349609375 246.17735290527344 389.8699951171875 C 244.89068603515625 389.69000244140625 243.5340118408203 389.6000061035156 242.1073455810547 389.6000061035156 C 239.114013671875 389.6000061035156 236.54734802246094 390.1333312988281 234.4073486328125 391.20001220703125 C 232.26734924316406 392.2733459472656 230.5006866455078 393.7366638183594 229.1073455810547 395.5899963378906 C 227.72067260742188 397.4433288574219 226.70401000976562 399.6199951171875 226.05734252929688 402.1199951171875 C 225.41734313964844 404.61334228515625 225.09735107421875 407.2533264160156 225.09735107421875 410.0400085449219 C 225.09735107421875 412.5333251953125 225.364013671875 415.0299987792969 225.89735412597656 417.5299987792969 C 226.43734741210938 420.0233459472656 227.27734375 422.2699890136719 228.41734313964844 424.2699890136719 C 229.55734252929688 426.2633361816406 230.9473419189453 427.8666687011719 232.58734130859375 429.0799865722656 C 234.22735595703125 430.2933349609375 236.190673828125 430.8999938964844 238.47735595703125 430.8999938964844 ZM 306.3797912597656 412.2799987792969 C 304.953125 412.35333251953125 303.59979248046875 412.4266662597656 302.3197937011719 412.5 C 301.0331115722656 412.5666809082031 299.7664489746094 412.6533203125 298.519775390625 412.760009765625 C 297.27313232421875 412.8733215332031 296.1497802734375 413 295.1497802734375 413.1400146484375 C 290.0097961425781 413.7799987792969 286.37310791015625 414.9033203125 284.2397766113281 416.510009765625 C 282.0931091308594 418.1166687011719 281.019775390625 420.4166564941406 281.019775390625 423.4100036621094 C 281.019775390625 425.9100036621094 281.789794921875 427.7833251953125 283.32977294921875 429.0299987792969 C 284.8631286621094 430.27667236328125 286.87646484375 430.8999938964844 289.3697814941406 430.8999938964844 C 292.79644775390625 430.8999938964844 295.8464660644531 430.3133239746094 298.519775390625 429.1400146484375 C 301.193115234375 427.9599914550781 303.8131103515625 426.40667724609375 306.3797912597656 424.4800109863281 L 306.3797912597656 412.2799987792969 M 306.27978515625 431.9700012207031 C 302.92645263671875 433.89666748046875 299.8031311035156 435.45001220703125 296.9097900390625 436.6300048828125 C 294.02313232421875 437.8033447265625 290.9031066894531 438.3900146484375 287.5497741699219 438.3900146484375 C 282.769775390625 438.3900146484375 278.9731140136719 437.2300109863281 276.1597900390625 434.9100036621094 C 273.33978271484375 432.5966796875 271.9297790527344 428.7633361816406 271.9297790527344 423.4100036621094 C 271.9297790527344 420.6300048828125 272.64312744140625 418.2066650390625 274.0697937011719 416.1400146484375 C 275.4964599609375 414.0666809082031 277.3697814941406 412.336669921875 279.6897888183594 410.95001220703125 C 282.0097961425781 409.5566711425781 284.6297912597656 408.4666748046875 287.5497741699219 407.67999267578125 C 290.4764404296875 406.8933410644531 293.4731140136719 406.3933410644531 296.539794921875 406.17999267578125 C 297.8264465332031 406.0400085449219 299.50311279296875 405.9166564941406 301.5697937011719 405.80999755859375 C 303.6364440917969 405.7033386230469 305.2397766113281 405.61334228515625 306.3797912597656 405.5400085449219 C 306.3797912597656 403.0466613769531 306.3097839355469 400.816650390625 306.1697998046875 398.8500061035156 C 306.02978515625 396.8900146484375 305.6031188964844 395.2166748046875 304.8897705078125 393.83001708984375 C 304.17645263671875 392.4366760253906 303.12310791015625 391.3833312988281 301.72979736328125 390.66998291015625 C 300.3364562988281 389.9566650390625 298.3564453125 389.6000061035156 295.789794921875 389.6000061035156 C 293.7231140136719 389.6000061035156 291.7264404296875 389.72332763671875 289.7997741699219 389.9700012207031 C 287.87310791015625 390.22332763671875 286.1597900390625 390.49334716796875 284.6597900390625 390.7799987792969 C 282.8797912597656 391.1333312988281 281.2397766113281 391.5233459472656 279.7397766113281 391.95001220703125 L 278.02978515625 384.57000732421875 C 279.8097839355469 384.1433410644531 281.7364501953125 383.75 283.8097839355469 383.3900146484375 C 285.58978271484375 383.03668212890625 287.6564636230469 382.73333740234375 290.0097961425781 382.4800109863281 C 292.3631286621094 382.23333740234375 294.8964538574219 382.1099853515625 297.60980224609375 382.1099853515625 C 301.2497863769531 382.1099853515625 304.193115234375 382.6433410644531 306.4397888183594 383.7099914550781 C 308.68646240234375 384.7833251953125 310.43310546875 386.2300109863281 311.6797790527344 388.04998779296875 C 312.92645263671875 389.8699951171875 313.7831115722656 391.9366760253906 314.2497863769531 394.25 C 314.70977783203125 396.57000732421875 314.9397888183594 399.0133361816406 314.9397888183594 401.58001708984375 L 314.9397888183594 427.260009765625 C 314.9397888183594 428.260009765625 314.95977783203125 429.3133239746094 314.9997863769531 430.4200134277344 C 315.0331115722656 431.52667236328125 315.1031188964844 432.61334228515625 315.20977783203125 433.67999267578125 C 315.31646728515625 434.7533264160156 315.443115234375 435.8599853515625 315.58978271484375 437 L 307.34979248046875 437.8599853515625 L 306.27978515625 431.9700012207031 ZM 338.4916076660156 372.3699951171875 L 315.59161376953125 372.3699951171875 L 315.59161376953125 364.0299987792969 L 370.3716125488281 364.0299987792969 L 370.3716125488281 372.3699951171875 L 347.47161865234375 372.3699951171875 L 347.47161865234375 437 L 338.4916076660156 437 L 338.4916076660156 372.3699951171875 ZM 402.0388488769531 412.2799987792969 C 400.6121826171875 412.35333251953125 399.25885009765625 412.4266662597656 397.9788513183594 412.5 C 396.6921691894531 412.5666809082031 395.4255065917969 412.6533203125 394.1788330078125 412.760009765625 C 392.93218994140625 412.8733215332031 391.808837890625 413 390.808837890625 413.1400146484375 C 385.6688537597656 413.7799987792969 382.03216552734375 414.9033203125 379.8988342285156 416.510009765625 C 377.7521667480469 418.1166687011719 376.6788330078125 420.4166564941406 376.6788330078125 423.4100036621094 C 376.6788330078125 425.9100036621094 377.4488525390625 427.7833251953125 378.98883056640625 429.0299987792969 C 380.5221862792969 430.27667236328125 382.5355224609375 430.8999938964844 385.0288391113281 430.8999938964844 C 388.45550537109375 430.8999938964844 391.5055236816406 430.3133239746094 394.1788330078125 429.1400146484375 C 396.8521728515625 427.9599914550781 399.47216796875 426.40667724609375 402.0388488769531 424.4800109863281 L 402.0388488769531 412.2799987792969 M 401.9388427734375 431.9700012207031 C 398.58551025390625 433.89666748046875 395.4621887207031 435.45001220703125 392.56884765625 436.6300048828125 C 389.68218994140625 437.8033447265625 386.5621643066406 438.3900146484375 383.2088317871094 438.3900146484375 C 378.4288330078125 438.3900146484375 374.6321716308594 437.2300109863281 371.81884765625 434.9100036621094 C 368.99884033203125 432.5966796875 367.5888366699219 428.7633361816406 367.5888366699219 423.4100036621094 C 367.5888366699219 420.6300048828125 368.30218505859375 418.2066650390625 369.7288513183594 416.1400146484375 C 371.155517578125 414.0666809082031 373.0288391113281 412.336669921875 375.3488464355469 410.95001220703125 C 377.6688537597656 409.5566711425781 380.2888488769531 408.4666748046875 383.2088317871094 407.67999267578125 C 386.135498046875 406.8933410644531 389.1321716308594 406.3933410644531 392.1988525390625 406.17999267578125 C 393.4855041503906 406.0400085449219 395.16217041015625 405.9166564941406 397.2288513183594 405.80999755859375 C 399.2955017089844 405.7033386230469 400.8988342285156 405.61334228515625 402.0388488769531 405.5400085449219 C 402.0388488769531 403.0466613769531 401.9688415527344 400.816650390625 401.828857421875 398.8500061035156 C 401.6888427734375 396.8900146484375 401.2621765136719 395.2166748046875 400.548828125 393.83001708984375 C 399.83551025390625 392.4366760253906 398.78216552734375 391.3833312988281 397.38885498046875 390.66998291015625 C 395.9955139160156 389.9566650390625 394.0155029296875 389.6000061035156 391.4488525390625 389.6000061035156 C 389.3821716308594 389.6000061035156 387.385498046875 389.72332763671875 385.4588317871094 389.9700012207031 C 383.53216552734375 390.22332763671875 381.81884765625 390.49334716796875 380.31884765625 390.7799987792969 C 378.5388488769531 391.1333312988281 376.8988342285156 391.5233459472656 375.3988342285156 391.95001220703125 L 373.6888427734375 384.57000732421875 C 375.4688415527344 384.1433410644531 377.3955078125 383.75 379.4688415527344 383.3900146484375 C 381.24884033203125 383.03668212890625 383.3155212402344 382.73333740234375 385.6688537597656 382.4800109863281 C 388.0221862792969 382.23333740234375 390.5555114746094 382.1099853515625 393.26885986328125 382.1099853515625 C 396.9088439941406 382.1099853515625 399.8521728515625 382.6433410644531 402.0988464355469 383.7099914550781 C 404.34552001953125 384.7833251953125 406.0921630859375 386.2300109863281 407.3388366699219 388.04998779296875 C 408.58551025390625 389.8699951171875 409.4421691894531 391.9366760253906 409.9088439941406 394.25 C 410.36883544921875 396.57000732421875 410.5988464355469 399.0133361816406 410.5988464355469 401.58001708984375 L 410.5988464355469 427.260009765625 C 410.5988464355469 428.260009765625 410.61883544921875 429.3133239746094 410.6588439941406 430.4200134277344 C 410.6921691894531 431.52667236328125 410.7621765136719 432.61334228515625 410.86883544921875 433.67999267578125 C 410.97552490234375 434.7533264160156 411.1021728515625 435.8599853515625 411.24884033203125 437 L 403.00885009765625 437.8599853515625 L 401.9388427734375 431.9700012207031 ZM 454.7640075683594 391.95001220703125 C 451.7640075683594 391.0233459472656 449.1073303222656 390.3999938964844 446.79400634765625 390.08001708984375 C 444.4739990234375 389.760009765625 442.3506774902344 389.6000061035156 440.42401123046875 389.6000061035156 C 437.92401123046875 389.6000061035156 435.83734130859375 390.2066650390625 434.16400146484375 391.41998291015625 C 432.49066162109375 392.6333312988281 431.6540222167969 394.2033386230469 431.6540222167969 396.1300048828125 C 431.7206726074219 397.836669921875 432.46734619140625 399.2966613769531 433.8940124511719 400.510009765625 C 435.3206787109375 401.72332763671875 436.9806823730469 402.8133239746094 438.8740234375 403.7799987792969 C 440.76068115234375 404.739990234375 442.864013671875 405.7900085449219 445.18402099609375 406.92999267578125 C 447.5039978027344 408.07000732421875 449.6806640625 409.3566589355469 451.7140197753906 410.7900085449219 C 453.7473449707031 412.2166748046875 455.4040222167969 413.9266662597656 456.68402099609375 415.9200134277344 C 457.9706726074219 417.9200134277344 458.6506652832031 420.30999755859375 458.7239990234375 423.0899963378906 C 458.6506652832031 426.0833435058594 457.99066162109375 428.5633239746094 456.7440185546875 430.5299987792969 C 455.49066162109375 432.489990234375 453.8840026855469 434.0566711425781 451.92401123046875 435.2300109863281 C 449.9640197753906 436.4100036621094 447.843994140625 437.23333740234375 445.56402587890625 437.70001220703125 C 443.27734375 438.1600036621094 441.1373291015625 438.3900146484375 439.1440124511719 438.3900146484375 C 436.5706787109375 438.3900146484375 433.9106750488281 438.2466735839844 431.16400146484375 437.9599914550781 C 428.42401123046875 437.67999267578125 425.4840087890625 437.0733337402344 422.3440246582031 436.1400146484375 L 423.9440002441406 428.44000244140625 C 427.1573486328125 429.2933349609375 430.0840148925781 429.9166564941406 432.7239990234375 430.30999755859375 C 435.3573303222656 430.7033386230469 437.5306701660156 430.8999938964844 439.2440185546875 430.8999938964844 C 440.5306701660156 430.8999938964844 441.7973327636719 430.75665283203125 443.04400634765625 430.4700012207031 C 444.2906799316406 430.1833190917969 445.41400146484375 429.7733459472656 446.41400146484375 429.239990234375 C 447.41400146484375 428.7066650390625 448.21734619140625 428.0133361816406 448.8240051269531 427.1600036621094 C 449.4306640625 426.29998779296875 449.7340087890625 425.336669921875 449.7340087890625 424.2699890136719 C 449.6606750488281 422.2699890136719 448.9840087890625 420.5733337402344 447.7040100097656 419.17999267578125 C 446.4173583984375 417.7933349609375 444.7573547363281 416.5466613769531 442.7239990234375 415.44000244140625 C 440.690673828125 414.3333435058594 438.5140075683594 413.2266540527344 436.1940002441406 412.1199951171875 C 433.88067626953125 411.0133361816406 431.70733642578125 409.7300109863281 429.67401123046875 408.2699890136719 C 427.64068603515625 406.80999755859375 425.9440002441406 405.0633239746094 424.5840148925781 403.0299987792969 C 423.2306823730469 400.9966735839844 422.55401611328125 398.4800109863281 422.55401611328125 395.4800109863281 C 422.55401611328125 393.3399963378906 423.1073303222656 391.433349609375 424.2140197753906 389.760009765625 C 425.3206787109375 388.08001708984375 426.7473449707031 386.69000244140625 428.4940185546875 385.5899963378906 C 430.24066162109375 384.48333740234375 432.1673583984375 383.6266784667969 434.2740173339844 383.0199890136719 C 436.3740234375 382.413330078125 438.42401123046875 382.1099853515625 440.42401123046875 382.1099853515625 C 442.49066162109375 382.1099853515625 444.8106689453125 382.2699890136719 447.3840026855469 382.5899963378906 C 449.95068359375 382.9100036621094 452.9106750488281 383.5 456.2640075683594 384.3599853515625 L 454.7640075683594 391.95001220703125 ZM 470.28729248046875 356.8599853515625 L 478.8472900390625 355.8900146484375 L 478.8472900390625 404.1499938964844 L 502.71728515625 383.17999267578125 L 514.477294921875 383.17999267578125 L 491.15728759765625 403.6199951171875 L 515.3372802734375 437 L 504.52728271484375 437 L 484.8472900390625 409.07000732421875 L 478.8472900390625 414.32000732421875 L 478.8472900390625 437 L 470.28729248046875 437 L 470.28729248046875 356.8599853515625 Z" transform="matrix(0.2485479712486267, 0, 0, 0.2485479712486267, -12.33555793762207, -69.03926849365234)" style="fill: rgb(238, 252, 248); white-space: pre; color: rgb(238, 252, 248);"/></svg>